<?xml version="1.0" encoding="utf-8"?>
<!-- Generator: Adobe Illustrator 27.5.0, SVG Export Plug-In . SVG Version: 6.00 Build 0)  -->
<svg version="1.1" xmlns="http://www.w3.org/2000/svg" xmlns:xlink="http://www.w3.org/1999/xlink" x="0px" y="0px"
	 viewBox="0 0 750 500" style="enable-background:new 0 0 750 500;" xml:space="preserve">
<g id="BACKGROUND">
	<path style="fill:#FFFFFF;" d="M750,0v500H22.33C21.22,500,0,500,0,500V0H750z"/>
</g>
<g id="OBJECTS">
	<g>
		<path style="fill:#FED500;" d="M76.94,500H22.33C21.22,500,0,500,0,500V372.55c1.83,2.97,3.23,6.32,4.55,9.52
			c16.93,41.28,40.38,79.87,69.21,113.9C74.83,497.24,75.93,498.59,76.94,500z"/>
		<path style="fill:#FB598B;" d="M95.98,39.88c-3.44,6.61-12.83,6.11-20.25,5.44c-24.34-2.23-49.39,4.19-69.66,17.87
			c-1.9,1.29-3.95,2.66-6.07,3.69V0h81.41c7.3,9.17,13.44,19,15.35,30.67C97.26,33.76,97.42,37.09,95.98,39.88z"/>
		<path style="fill:#FED500;" d="M141.66,72.52c-14.8,8.78-33.6,4.75-50.11-0.08C75.04,67.6,56.97,62.27,41.13,69
			c-7.44,3.17-13.6,8.76-19.02,14.76C18.13,88.18,14.4,92.93,9.5,96.3c-2.82,1.93-6.14,3.35-9.5,3.79V40.9
			c7.21-4.73,15.66-7.71,24.22-8.99c13.55-2.04,27.41-0.16,40.72,3.11c5.33,1.31,12.79,1.76,14.45-3.47
			c1.31-4.14-2.52-7.93-5.74-10.84C67.09,14.78,61.6,7.73,57.34,0h60.82c-1.11,12.85,4.52,26.23,14.73,34.18
			c7.26,5.64,17.28,9.71,19.37,18.67C154.08,60.61,148.52,68.45,141.66,72.52z"/>
		<path style="fill:#0135A5;" d="M158.19,500H48.05c-12.81-18.9-24.27-38.48-32.71-59.35C8.15,422.88,3.3,404.57,0,385.94V224.53
			c1.59,0.46,3.41,1.89,5.49,4.67c3.48,4.65,2.89,10.82,2.4,16.44C2.61,306.3,25.63,366.88,59.54,419.25
			c11.57,17.87,24.6,35.22,41.49,48.95C117.84,481.87,137.76,491.42,158.19,500z"/>
		<path style="fill:#0135A5;" d="M287.97,186.39c-9.35,9.54-24.44,10.24-37.66,8.39c-29.73-4.17-57.97-18.3-79.12-39.59
			c-6.15-6.2-11.76-13.02-18.64-18.4c-12.23-9.57-27.81-14.03-43.28-15.28c-11.53-0.93-23.48-0.12-34,4.69
			c-11.7,5.34-20.72,15.15-28.7,25.24c-14.37,18.16-26.49,38.1-36.02,59.21C7.78,216.81,5.04,223.3,0,227.73V80.51
			c6.19-5.79,12.96-10.97,20.25-15.36c27.63-16.65,55.89-15.33,85.17-3.5c6.79,2.75,35.39,12.88,32.35-4.24
			c-0.12-0.64-0.27-1.32-0.48-2.04c-1.45-5.1-5.83-8.7-9.56-12.48C116.7,31.71,110.11,15.91,108.06,0h77.64
			c-0.71,10.41-1.69,20.88,0.55,30.85c8.04,35.85,38.45,61.94,68.7,82.8c12.6,8.68,25.88,17.33,34.07,30.25
			C297.21,156.82,298.68,175.47,287.97,186.39z"/>
		<path style="fill:#AF17F5;" d="M354.41,282.54c-10.68,2.89-21.95,2.02-33.01,2.19c-18.66,0.29-37.12,3.61-55.49,6.91
			c-18,3.24-36.87,6.87-50.99,18.5c-12.72,10.46-19.93,26.13-25.13,41.76c-4.92,14.79-8.43,30.53-5.9,45.9
			c5.48,33.36,36.56,55.25,63.69,75.42c9.85,7.32,19.98,15.56,24.57,26.78H102.81c-4.77-3.81-9.44-7.76-14.05-11.76
			C71.1,472.93,54,456.68,40.5,437.59C18.65,406.66,7.16,369.61,0,332.38V198.81C13.68,150.02,48.17,95.14,99.1,87.72
			c25.49-3.72,51.43,5.8,72.74,20.28c21.31,14.47,38.89,33.66,57.02,51.96c4.3,4.34,8.96,8.82,14.9,10.19
			c5.95,1.37,13.37-1.83,14.25-7.87c0.78-5.35-3.57-9.94-7.58-13.57c-27.03-24.42-55.6-48.14-74.86-79.05
			C162.21,48.21,155.83,24.39,155.71,0h156.63c-3.43,4.63-6.76,9.32-8.76,14.64c-6.03,16.05,3.02,36.14,19.04,42.25
			c9.78,3.73,23.05,4.24,26.73,14.03c3.18,8.46-3.67,16.95-7.38,25.18c-8.77,19.47,0.35,42.39,12.66,59.85
			c12.31,17.45,28.13,33.12,34.85,53.4C399.01,238.1,383.65,274.62,354.41,282.54z"/>
		<path style="fill:#97DBEE;" d="M571.08,387.83c-24.71,24.17-66.09,32.53-94.94,13.5c-21.58-14.23-32.61-40.34-36.1-65.95
			c-3.06-22.43-1.93-47.27-16.01-65.01c-3.18-4.01-7.47-7.66-12.58-7.99c-4.51-0.29-8.79,2.09-12.23,5.03
			c-15.69,13.41-20.05,39.44-39.53,46.27c-17.93,6.27-35.83-8.03-54.09-13.24c-34.35-9.82-71.58,16.03-83.76,49.61
			c-12.18,33.59-4.24,71.45,10.72,103.89c7.13,15.46,15.86,30.33,22.17,46.06h-60c-19.92-15.82-44.71-25.97-66.6-38.33
			c-32.16-18.17-57.88-47.3-76.31-79.2c-23.2-40.17-29.05-88.99-21.26-134.72c2.19-12.89,5.45-25.68,10.99-37.52
			c15.96-34.14,51.12-57.86,88.54-62.32c37.42-4.46,76.11,9.55,103.79,35.13c9.3,8.6,17.74,18.64,29.19,24.08
			c11.44,5.44,27.34,4.49,34.25-6.13c5.09-7.82,3.69-18.43-0.75-26.63s-11.46-14.64-17.91-21.36
			c-24.38-25.41-42.38-57.84-46.4-92.81c-2.17-18.9,0.32-40.71,7.55-60.19h153.67c-0.14,24.95-6.06,52.3,1.85,75.88
			c5.89,17.58,19.11,31.68,33.03,43.93c40.98,36.07,90.57,60.92,133.92,94.12c11.45,8.77,22.67,18.35,30.12,30.7
			c8.65,14.33,11.61,31.44,12.12,48.17C605.57,327.35,595.79,363.67,571.08,387.83z"/>
		<path style="fill:#FB598B;" d="M596.32,396.61c-6.94,6.51-15.08,11.77-21.22,19.04c-6.48,7.67-10.37,17.15-15.67,25.68
			c-15.33,24.61-43.46,40.74-72.45,41.54c-26.29,0.72-51.64-10.26-77.93-11.32c-27.58-1.11-55.22,9.73-75.43,28.45H219.86
			c-6.89-7.31-14.94-13.68-21.96-18.61c-21.88-15.35-47.06-25.61-68.49-41.58c-31.55-23.51-53.68-59.34-60.59-98.09
			c-7.88-44.25,8.65-90.8,48.25-114.65c20.84-12.54,46.15-16.96,70.12-13.35c26.9,4.05,41.31,18.24,62.14,33.57
			c8.36,6.16,18.52,10.89,28.84,9.72c18.27-2.06,29.17-20.5,42.39-33.27c17.74-17.14,42.6-24.28,66.92-23.15
			c27.83,1.3,55.64,17.57,66.25,43.32c5.18,12.58,6.29,26.85,13.5,38.38c7.22,11.53,24.79,18.56,34.29,8.83
			c7.65-7.82,5.03-20.99-0.23-30.59c-18-32.88-56.51-47.3-89.88-64.38c-44.77-22.9-85.63-55.64-111.24-98.91
			C282.95,68.13,273.19,33.93,274.24,0h128.89c-8.15,20.03-18.8,40.21-12.26,59.82c3.27,9.78,10.51,17.73,18.35,24.43
			c11.48,9.8,24.67,17.59,38.8,22.91c32.35,12.18,70.46,12.07,96.98,34.23c15.06,12.58,24.49,31.66,25.32,51.27
			c0.45,10.51-1.39,21.44,2.31,31.28c3.01,8.01,9.29,14.23,14.97,20.63c18.66,21.03,32.41,47.14,35.29,75.11
			C625.78,347.64,616.85,377.4,596.32,396.61z"/>
		<path style="fill:#FED500;" d="M648.24,362.49c-1.97,25.52-19.05,49.3-42.6,59.31c-26.4,11.22-61.39,7.66-78.63,30.59
			c-9.82,13.07-10.98,32.08-23.5,42.59c-2.64,2.21-5.58,3.86-8.72,5.02h-28.65c-2.02-0.56-3.99-1.22-5.91-1.96
			c-14.18-5.44-26.87-14.42-41.33-19.06c-14.45-4.64-32.38-3.8-42.22,7.77c-3.3,3.88-5.28,8.4-6.43,13.25H257.46
			c-9.31-18.01-26.19-32.08-43.21-43.8c-21.08-14.53-44.07-27.71-58.93-48.56c-19.21-26.98-21.47-63.99-9.56-94.9
			c6.3-16.33,16.67-31.62,31.6-40.75c25.84-15.79,61.29-9.46,84.49,10.01c9.41,7.9,18.04,18.13,30.11,20.4
			c13.14,2.48,26.21-5.6,34.79-15.86c8.57-10.25,14.06-22.72,21.83-33.6c10.25-14.35,25.07-26.05,42.33-29.7
			c17.26-3.65,36.87,1.87,47.57,15.89c15.24,19.97,10.67,48.63,17.45,71.67c1.57,5.33,3.68,10.53,6.57,15.28
			c11.27,18.48,35.18,28.23,56.16,22.89c42.29-10.75,46.88-64.93,23.86-95.68c-14.58-19.47-36.89-31.25-57.47-44.21
			c-48.49-30.54-92.31-73.16-109.63-127.79c-6.13-19.33-8.1-39.98-6.07-60.14c0.72-7.14,2.09-14.22,4.04-21.15h182.63
			c-6.47,11.35-15.98,21.06-21.46,32.98c-10.99,23.91-3.7,52.85,10.87,74.77c14.57,21.91,35.5,38.63,54.76,56.56
			c13.99,13.02,27.93,28.23,30.47,47.17c1.93,14.36-3.06,28.71-3.75,43.19C625.16,291.51,651.07,325.72,648.24,362.49z"/>
		<path style="fill:#AF17F5;" d="M750,0v101.93c-0.24-0.08-0.48-0.15-0.72-0.21c-7.05-1.89-14.37,1.39-21.66,1.84
			c-9.88,0.61-19.91-4.45-25.29-12.75c-10.08-15.57-2.75-36.11,5.08-52.93c5.14-11.05,10.02-22.5,10.88-34.79
			c0.07-1.02,0.09-2.05,0.06-3.09H750z"/>
		<path style="fill:#97DBEE;" d="M750,86.74v61.11c-8.4,1.23-17.26,0.08-25.68-1.59c-14.17-2.8-29.13-7.64-37.61-19.33
			c-8.38-11.57-8.42-27.16-6.39-41.31c3.39-23.6,13.88-45.55,7.03-70.17c-1.47-5.3-3.5-10.41-5.69-15.45h43.89
			c0.23,10.2-1.67,20.52-5.68,29.84c-4.24,9.86-10.51,18.92-13.17,29.33c-2.66,10.4-0.51,23.22,8.69,28.75
			C725.45,93.97,738.07,88.73,750,86.74z"/>
		<path style="fill:#AF17F5;" d="M750,261.69V500H349.36c-11.74-18.63-26.97-35.08-44.77-48.07
			c-17.09-12.46-36.49-21.86-52.03-36.22c-15.53-14.37-26.99-35.89-21.7-56.38c1.19-4.64,3.26-9.13,6.51-12.64
			c8.92-9.65,24.59-9.67,36.7-4.57c12.11,5.1,21.99,14.24,32.99,21.43c3.63,2.39,7.59,4.62,11.93,4.85
			c14.01,0.73,20.13-17.46,31.48-25.69c12.38-8.98,30.65-4.57,41.99,5.69c11.33,10.26,17.45,24.9,23.54,38.93
			s12.93,28.51,25.11,37.75c15.89,12.08,37.74,12.77,57.41,9.41c32.49-5.55,63.63-21.28,85.3-46.13
			c21.66-24.85,33.11-59.03,28.03-91.6c-4.68-29.97-22.28-56.22-40.78-80.26c-18.5-24.05-38.66-47.54-49.97-75.69
			c-11.3-28.15-12.1-62.77,6.67-86.61c11.5-14.6,32-23.78,49.15-16.62c22.7,9.48,26.97,39.07,29.34,63.56
			c3.49,36.06,10.44,72.7,28.99,103.82s50.56,56.06,86.73,58.13C731.33,263.63,740.66,262.65,750,261.69z"/>
		<path style="fill:#FED500;" d="M750,382.47V500h-77.96c1.75-4.74,4.44-9.44,6.77-13.81c9.87-18.53,13.7-39.72,14.94-60.67
			c0.57-9.61,0.72-19.63,5.17-28.16c4.45-8.53,14.85-14.89,23.75-11.26c2.25,0.92,4.26,2.41,6.58,3.12
			C736.99,391.6,743.31,386.2,750,382.47z"/>
		<path style="fill:#0135A5;" d="M750,241.8v36.35c-40.56,6.5-82.56-14.03-109.37-45.37c-32.31-37.76-46.97-91.23-53.94-139.41
			c-1.68-11.64-4.08-24.53-13.54-31.51c-10.59-7.83-26.79-4.32-35.57,5.49c-8.79,9.8-11.04,24.12-9,37.13
			c2.03,13,7.83,25.07,13.57,36.92c7.89,16.32,16.6,30.88,26.37,46.24c21.55,33.91,41.15,70.22,47.2,109.94
			c6.05,39.73-3.53,83.71-33.04,110.98c-15.32,14.16-34.8,22.93-54.32,30.29c-25.18,9.5-53.28,17.06-78.6,7.94
			c-26.14-9.43-43.18-34.49-55.54-59.39c-6.34-12.79-15.55-28.19-29.76-26.88c-15.58,1.44-22.32,22.15-37.14,27.17
			c-15.39,5.2-30.05-8.37-41.9-19.49c-11.86-11.12-31.32-20.79-42.95-9.44c-8.26,8.08-6.18,22.6,1.15,31.53
			c7.33,8.93,18.36,13.78,28.75,18.83c41.53,20.2,80.56,51.24,102.5,90.88h-78.41c-6.8-27.38-32.38-48.39-56.44-67.48
			c-19.68-15.61-39.21-35.32-41.53-60.33c-1.75-18.93,7.7-38.4,23.48-49c15.78-10.59,37.2-12.01,54.37-3.86
			c13.82,6.56,26.02,19.02,41.3,18.43c21.852-0.844,34.505-23.373,46.272-38.573c5.241-6.77,10.609-13.661,17.718-18.433
			s16.387-7.146,24.365-4.04c7.783,3.03,12.878,10.56,16.284,18.185c8.923,19.975,9.636,43.074,19.956,62.365
			c11.436,21.376,34.593,35.803,58.788,37.328c52.573,3.314,91.12-47.72,85.49-97.31c-3.074-27.077-16.935-50.01-31.64-72.149
			c-14.852-22.359-41.648-38.341-61.423-56.024c-21.93-19.61-42.22-43.52-47.37-72.49C439.6,60.22,459.2,24.08,488.05,0H624
			c13.15,17.23,20.85,39.65,24.26,61.37c5.49,34.94,2.9,71.03,11.31,105.38c8.41,34.35,32.11,68.74,67.05,74.2
			C734.18,242.13,742.12,241.97,750,241.8z"/>
		<path style="fill:#FB598B;" d="M750,324.92v66.28c-5.83,5.14-13.5,8.53-21.15,7.51c-4.61-0.61-9.37-2.75-13.7-1.08
			c-4.57,1.77-6.64,7.04-7.59,11.85c-2.82,14.31-0.33,29.11-1.36,43.65c-1.18,16.93-7.57,33.24-17.61,46.87h-95.63
			c3.32-2.39,6.92-4.46,10.34-6.72c21.06-13.9,35.97-35.82,44.8-59.46c8.84-23.63,11.98-49.02,13.12-74.23
			c0.33-7.3,1.02-15.66,6.9-20.01c6.55-4.84,15.89-1.95,22.93,2.15c7.04,4.09,14.15,9.41,22.29,9.03
			c9.47-0.45,16.59-8.39,23.07-15.32C740.27,331.32,744.92,327.16,750,324.92z"/>
		<path style="fill:#97DBEE;" d="M750,303.15v59.23c-4.24,2.07-8.73,3.68-13.26,4.88c-7.2,1.9-14.95,2.85-22.03,0.53
			c-8.31-2.71-25.98-18.03-32.67-5.69c-2.25,4.15-2.44,9.06-2.74,13.78c-2.23,34.98-13.96,69.91-36.53,96.74
			c-9.05,10.76-19.94,20.09-31.99,27.38H409.89c-11.47-24.22-30.37-44.58-52-60.5c-6.87-5.06-14.28-9.97-18.57-17.35
			c-4.29-7.38-4.22-18.15,2.65-23.21c5.74-4.23,14.12-2.92,20.01,1.09c5.89,4.01,9.89,10.16,13.9,16.05
			c17.87,26.24,39.61,51.01,68.06,65.1c28.11,13.93,61.35,16.29,91.75,8.52c63.81-16.3,112.26-79.74,111.17-145.6
			c-0.34-20.68-5.02-41.08-11.39-60.76c-1.05-3.22-2.01-7.12,0.22-9.67c4.23-4.83,11.36,1.77,14.63,7.3
			c7.32,12.37,16.83,20.7,29.32,27.72c8.44,4.74,17.38,9.18,27.04,9.91C722.23,319.76,736.61,311.24,750,303.15z"/>
		<path style="fill:#FED500;" d="M750,189.08v69.72c-6.09,0.49-12.31,0.17-18.33-0.68c-29.11-4.13-57.01-20.75-74.11-44.76
			c-17.86-25.06-22.66-61.02-25.58-90.97c-2.53-25.88-4.03-52.16-11.96-76.92C614.66,28.69,605.99,12.46,593.37,0h70.86
			c2.11,6.46,3.8,13.04,5.12,19.64c6.5,32.62,4.71,66.25,2.77,99.46c-0.6,10.37-1.18,21.07,2.26,30.88
			c4.21,12.04,14.16,21.44,25.51,27.25c11.35,5.81,24.06,8.38,36.7,10.08C741.05,187.92,745.54,188.42,750,189.08z"/>
		<path style="fill:#FB598B;" d="M750,134.89v67.22c-5.02,1.32-10.24,1.96-15.38,1.93c-29.8-0.17-58.25-21.61-66.64-50.2
			c-4.55-15.54-3.58-32.12-2-48.23c2.24-22.69,5.62-45.53,3.12-68.19c-1.72-15.54-6.59-26.75-13.45-37.42h35.3
			c2.07,6.87,3.2,14.02,3.29,21.2c0.38,29.81-16.04,60.92-3.87,88.13c6.93,15.49,23.13,26.36,40.08,26.9
			C736.92,136.44,743.52,135.28,750,134.89z"/>
	</g>
</g>
</svg>
